<svg xmlns="http://www.w3.org/2000/svg" version="1.1" xmlns:xlink="http://www.w3.org/1999/xlink" xmlns:svgjs="http://svgjs.dev/svgjs" width="360" height="800" preserveAspectRatio="none" viewBox="0 0 360 800"><g mask="url(&quot;#SvgjsMask1054&quot;)" fill="none"><rect width="360" height="800" x="0" y="0" fill="rgba(78, 131, 235, 1)"></rect><path d="M73.253,635.298C112.296,637.29,150.253,615.989,168.489,581.409C185.725,548.725,174.494,510.639,155.801,478.766C137.384,447.365,109.652,419.6,73.253,419.03C36.039,418.448,3.273,443.088,-13.894,476.111C-29.821,506.749,-23.098,542.193,-6.517,572.481C10.902,604.3,37.025,633.45,73.253,635.298" fill="rgba(28, 83, 142, 0.4)" class="triangle-float1"></path><path d="M326.832,224.154C342.631,223.817,356.223,215.085,365.139,202.037C375.67,186.626,385.477,167.6,376.754,151.098C367.677,133.926,346.189,127.955,326.832,129.567C310.044,130.965,297.68,143.64,289.493,158.363C281.586,172.581,277.557,189.584,285.587,203.733C293.703,218.033,310.393,224.505,326.832,224.154" fill="rgba(28, 83, 142, 0.4)" class="triangle-float3"></path><path d="M369.05198015412486 559.1608141801764L306.1719916457086 555.8654136211072 302.87659108663934 618.7454021295234 365.75657959505565 622.0408026885927z" fill="rgba(28, 83, 142, 0.4)" class="triangle-float3"></path><path d="M295.427,615.233C326.936,614.801,354.155,594.272,368.887,566.415C382.684,540.326,378.937,509.853,364.878,483.904C350.002,456.445,326.63,432.115,295.427,430.82C262.265,429.443,231.423,448.728,215.215,477.692C199.366,506.013,202.044,540.442,218.394,568.477C234.613,596.287,263.236,615.674,295.427,615.233" fill="rgba(28, 83, 142, 0.4)" class="triangle-float1"></path><path d="M139.03373179715936 72.235724819625L47.58362514667783 21.54410294694204-3.107996726005126 112.99420959742358 88.3421099244764 163.68583147010654z" fill="rgba(28, 83, 142, 0.4)" class="triangle-float3"></path><path d="M200.789,293.637C227.568,295.406,252.56,279.396,265.84,256.075C278.986,232.989,279.082,203.941,264.514,181.726C251.114,161.292,225.221,156.432,200.789,156.878C177.331,157.307,152.515,163.556,140.973,183.983C129.568,204.167,137.994,228.011,149.096,248.363C160.853,269.915,176.292,292.019,200.789,293.637" fill="rgba(28, 83, 142, 0.4)" class="triangle-float1"></path></g><defs><mask id="SvgjsMask1054"><rect width="360" height="800" fill="#ffffff"></rect></mask><style>
                @keyframes float1 {
                    0%{transform: translate(0, 0)}
                    50%{transform: translate(-10px, 0)}
                    100%{transform: translate(0, 0)}
                }

                .triangle-float1 {
                    animation: float1 5s infinite;
                }

                @keyframes float2 {
                    0%{transform: translate(0, 0)}
                    50%{transform: translate(-5px, -5px)}
                    100%{transform: translate(0, 0)}
                }

                .triangle-float2 {
                    animation: float2 4s infinite;
                }

                @keyframes float3 {
                    0%{transform: translate(0, 0)}
                    50%{transform: translate(0, -10px)}
                    100%{transform: translate(0, 0)}
                }

                .triangle-float3 {
                    animation: float3 6s infinite;
                }
            </style></defs></svg>